<svg width="740" height="507" viewBox="0 0 740 507" fill="none" xmlns="http://www.w3.org/2000/svg">
<path d="M740 257C740 395.071 628.071 507 490 507C351.929 507 240 395.071 240 257C240 118.929 351.929 7 490 7C628.071 7 740 118.929 740 257Z" fill="#AAAAAA" fill-opacity="0.4"/>
<path id="orange-bg-circle"fill-rule="evenodd" clip-rule="evenodd" d="M173 342C266.336 342 342 266.336 342 173C342 79.6639 266.336 4 173 4C79.6639 4 4 79.6639 4 173C4 266.336 79.6639 342 173 342ZM173 346C268.545 346 346 268.545 346 173C346 77.4547 268.545 0 173 0C77.4547 0 0 77.4547 0 173C0 268.545 77.4547 346 173 346Z" fill="#FFBC6C" fill-opacity="0.4"/>
</svg>
